# xmcd
#
# Track frame offsets: 
#        150
#        13826
#        29325
#        41423
#        56431
#        59801
#        72844
#        88242
#        102725
#        118919
#        132919
#        137534
#        158057
#        175304
#        189218
#        207323
#        223365
#        236779
#        237498
#        253358
#        268447
#        290057
#        306092
#        322750
#
# Disc length: 4526 seconds
#
# Revision: 0
# Processed by: cddbd v1.5.2PL0 Copyright (c) Steve Scherf et al.
# Submitted via: ExactAudioCopyFreeDBPlugin 1.0
#
DISCID=8111ac18
DTITLE=Abroo - The Lost Tapes ...das Spiel ist aus
DYEAR=2005
DGENRE=Rap
TTITLE0=Mundschutz
TTITLE1=Chi Ching
TTITLE2=Abroonator
TTITLE3=Ex das Glas leer
TTITLE4=Skit
TTITLE5=Komm doch feat. Separate and Geeno
TTITLE6=La La La La
TTITLE7=Genau wie ihr
TTITLE8=Eins und Zwei feat. Kisi and Loonia
TTITLE9=Amerika
TTITLE10=Skit
TTITLE11=Fotoalbum
TTITLE12=Dear Mama feat. Separate and Geeno
TTITLE13=Für immer unterschätzt
TTITLE14=Back in the days 2 feat. Mirc
TTITLE15=Kniet nieder
TTITLE16=Gamestar feat. P-Dox
TTITLE17=Skit
TTITLE18=Meine Welt
TTITLE19=Was ihr braucht feat. Separate
TTITLE20=Backstabber feat. Prinz Porno and Separate
TTITLE21=Tot falsch feat. Mirc
TTITLE22=Immer noch rulen feat. Separate
TTITLE23=Oldskool feat. Separate
EXTD=
EXTT0=
EXTT1=
EXTT2=
EXTT3=
EXTT4=
EXTT5=
EXTT6=
EXTT7=
EXTT8=
EXTT9=
EXTT10=
EXTT11=
EXTT12=
EXTT13=
EXTT14=
EXTT15=
EXTT16=
EXTT17=
EXTT18=
EXTT19=
EXTT20=
EXTT21=
EXTT22=
EXTT23=
PLAYORDER=
